<svg enable-background="new 0 0 1068 312" viewBox="0 0 1068 312" xmlns="http://www.w3.org/2000/svg"><g fill="#3e55cd"><path d="m613.5 247c7 0 12.1 1.2 15.5 3.7 3.3 2.5 5 6.3 5 11.5 0 9.8-6.8 14.7-20.5 14.7h-23.4v-30zm-2.1-49.9c6.5 0 11.3 1.1 14.3 3.2s4.5 5.6 4.5 10.3c0 4.6-1.5 8.1-4.6 10.3-3.1 2.3-7.8 3.4-14.1 3.4h-21.3v-27.2zm2.3-22.7h-43.3c-2.4 0-4.1.5-5.1 1.5s-1.5 2.7-1.5 5.1v112c0 2.4.5 4.1 1.5 5.1s2.7 1.5 5.1 1.5h46.1c14.6 0 25.7-3.1 33.4-9.2s11.5-15.2 11.5-27.1c0-7.7-1.9-13.9-5.7-18.7s-9.1-8.3-15.8-10.5c5.5-2.5 9.7-6 12.7-10.3s4.4-9.4 4.4-15.3c0-10.7-3.5-19-10.6-25-7.1-6.1-18-9.1-32.7-9.1m-92.1 0h-13.1c-2.4 0-4.1.5-5.1 1.5s-1.5 2.7-1.5 5.1v70.8c0 8.4-2.1 14.6-6.4 18.8s-10 6.3-17.2 6.3-12.9-2.1-17.2-6.3-6.4-10.5-6.4-18.8v-70.8c0-2.4-.5-4.1-1.5-5.1s-2.7-1.5-5.1-1.5h-13.1c-2.4 0-4.1.5-5.1 1.5s-1.5 2.7-1.5 5.1v72.9c0 10.1 2 18.7 6.1 25.9 4 7.2 9.8 12.7 17.3 16.5s16.4 5.6 26.6 5.6 19.1-1.9 26.6-5.6c7.5-3.8 13.3-9.2 17.4-16.5 4-7.2 6.1-15.8 6.1-25.9v-72.9c0-2.4-.5-4.1-1.5-5.1-1.4-1-3.1-1.5-5.4-1.5"/><path d="m1049 13.9c-4.6-1.9-8.1-2.8-10.3-2.8-1.3 0-2.3.3-3.2.8-.8.5-1.6 1.4-2.3 2.5l-29.5 48.6-29.6-48.7c-1.3-2.2-3.2-3.3-5.6-3.3-2.3 0-5.8.9-10.4 2.8-3.2 1.3-5.5 2.7-6.9 4s-2.2 2.7-2.2 4.2c0 1.3.4 2.5 1.3 3.8l40 64v41c0 2.4.5 4.1 1.5 5.1s2.7 1.5 5.1 1.5h13.1c2.4 0 4.1-.5 5.1-1.5s1.5-2.7 1.5-5.1v-41l40-64c.8-1.4 1.3-2.7 1.3-3.9-.1-2.8-3-5.5-8.9-8m-170.5-3.8c-11.5 0-21.7 2.6-30.4 7.9-8.7 5.2-15.5 12.7-20.2 22.5-4.8 9.8-7.2 21.3-7.2 34.5s2.4 24.7 7.2 34.5 11.5 17.3 20.2 22.6 18.8 7.9 30.4 7.9c14.6 0 28.2-3.1 40.8-9.2 3.2-1.5 4.9-4.1 4.9-7.8 0-1.9-.5-4.3-1.5-7.3s-2.2-5.3-3.6-6.7-3-2.2-4.6-2.2c-1.1 0-2.2.2-3.2.7-5.3 2.5-10.6 4.4-15.7 5.6s-10.5 1.8-16.1 1.8c-9.9 0-17.6-3.4-23-10.3-5.5-6.9-8.2-16.8-8.2-29.7s2.7-22.8 8.1-29.6 13.1-10.2 23.1-10.2c5.6 0 11 .6 16.1 1.8s10.3 3.1 15.7 5.6c1 .5 2 .7 3.2.7 1.6 0 3.1-.7 4.6-2.2 1.4-1.4 2.7-3.7 3.6-6.7 1-3 1.5-5.4 1.5-7.3 0-3.7-1.6-6.3-4.9-7.8-12.7-6.1-26.3-9.1-40.8-9.1m-97.5 103.8h-27v-77.8h24.9c2.5 0 4.2-.8 5.2-2.4s1.5-4.7 1.5-9.4c0-4.6-.5-7.8-1.5-9.4-1-1.7-2.7-2.5-5.2-2.5h-76.1c-2.5 0-4.2.8-5.2 2.5s-1.5 4.8-1.5 9.4.5 7.8 1.5 9.4 2.7 2.4 5.2 2.4h24.9v77.7h-27c-2.5 0-4.2.8-5.2 2.5s-1.5 4.8-1.5 9.4.5 7.8 1.5 9.4 2.7 2.4 5.2 2.4h80.3c2.5 0 4.2-.8 5.2-2.4s1.5-4.7 1.5-9.4c0-4.6-.5-7.8-1.5-9.4s-2.7-2.4-5.2-2.4m-130.2-1.1h-57.6v-93.8c0-2.4-.5-4.1-1.5-5.1s-2.7-1.5-5.1-1.5h-13.1c-2.4 0-4.1.5-5.1 1.5s-1.5 2.7-1.5 5.1v112c0 2.4.5 4.1 1.5 5.1s2.7 1.5 5.1 1.5h77.3c1.7 0 3-.3 3.9-1s1.6-1.9 2.1-3.7.7-4.3.7-7.6-.2-5.9-.7-7.6c-.5-1.8-1.1-3-2.1-3.7-.9-.8-2.2-1.2-3.9-1.2m-172.5-77.7c9.8 0 17.3 3.4 22.5 10.3 5.1 6.9 7.1 16.7 7.1 29.6s-1.9 22.7-7.1 29.6c-5.1 6.9-12.6 10.3-22.5 10.3-9.8 0-17.3-3.4-22.5-10.3-5.1-6.9-7.1-16.8-7.1-29.6s1.9-22.7 7.1-29.6 12.6-10.3 22.5-10.3m0-25c-11.5 0-21.7 2.6-30.4 7.9-8.7 5.2-15.5 12.7-20.2 22.5-4.8 9.8-6.5 21.3-6.5 34.5s1.8 24.7 6.5 34.5c4.8 9.8 11.5 17.3 20.2 22.6s18.8 7.9 30.4 7.9c11.5 0 21.7-2.6 30.4-7.9s15.5-12.8 20.2-22.6c4.8-9.8 6.5-21.3 6.5-34.5s-1.8-24.7-6.5-34.5c-4.8-9.8-11.5-17.3-20.2-22.5-8.8-5.3-18.9-7.9-30.4-7.9"/><path d="m390.3 174.4h-13.1c-2.4 0-4.1.5-5.1 1.5s-1.5 2.7-1.5 5.1v41.7h-47.2v-41.7c0-2.4-.5-4.1-1.5-5.1s-2.7-1.5-5.1-1.5h-13.1c-2.4 0-4.1.5-5.1 1.5s-1.5 2.7-1.5 5.1v112c0 2.4.5 4.1 1.5 5.1s2.7 1.5 5.1 1.5h13.1c2.4 0 4.1-.5 5.1-1.5s1.5-2.7 1.5-5.1v-45.5h47.2v45.5c0 2.4.5 4.1 1.5 5.1s2.7 1.5 5.1 1.5h13.1c2.4 0 4.1-.5 5.1-1.5s1.5-2.7 1.5-5.1v-112c0-2.4-.5-4.1-1.5-5.1s-2.7-1.5-5.1-1.5"/><path d="m346.4 76.7h-23.1v-39.5h23.1c8.4 0 14.7 1.6 18.9 4.8 4.3 3.2 6.4 8.2 6.4 14.9s-2.1 11.7-6.4 15c-4.2 3.2-10.5 4.8-18.9 4.8m3.3-64.3h-46.1c-2.4 0-4.1.5-5.1 1.5s-1.5 2.7-1.5 5.1v112c0 2.4.5 4.1 1.5 5.1s2.7 1.5 5.1 1.5h13.1c2.4 0 4.1-.5 5.1-1.5s1.5-2.7 1.5-5.1v-29.5h26.4c10.7 0 19.7-1.8 27.1-5.4s12.9-8.8 16.6-15.5 5.5-14.6 5.5-23.7-1.8-17-5.5-23.7c-3.7-6.6-9.2-11.8-16.6-15.4s-16.5-5.4-27.1-5.4"/></g><path d="m67.3 35.1c9.8 0 17.3 3.4 22.5 10.3 5.1 6.9 7.1 16.7 7.1 29.6s-1.9 22.7-7.1 29.6c-5.1 6.9-12.6 10.3-22.5 10.3-9.8 0-17.3-3.4-22.5-10.3-5.1-6.9-7.1-16.8-7.1-29.6s1.9-22.7 7.1-29.6 12.7-10.3 22.5-10.3m0-25c-11.5 0-21.7 2.6-30.4 7.9-8.7 5.2-15.5 12.7-20.2 22.5-4.8 9.8-6.5 21.3-6.5 34.5s1.8 24.7 6.5 34.5c4.8 9.8 11.5 17.3 20.2 22.6s18.8 7.9 30.4 7.9c11.5 0 21.7-2.6 30.4-7.9s15.5-12.8 20.2-22.6c4.8-9.8 6.5-21.3 6.5-34.5s-1.8-24.7-6.5-34.5c-4.8-9.8-11.5-17.3-20.2-22.5-8.7-5.3-18.9-7.9-30.4-7.9" fill="#f0286e"/><path d="m259.7 222.7h-80.7v-54.4h67.1c1.7 0 3-.3 3.9-1s1.6-1.9 2.1-3.7.7-4.3.7-7.6-.2-5.9-.7-7.6c-.5-1.8-1.1-3-2.1-3.7-.9-.7-2.2-1.1-3.9-1.1h-67.1v-42h80.7c1.7 0 3-.3 3.9-1s1.6-1.9 2.1-3.7.7-4.3.7-7.6-.2-5.9-.7-7.6c-.5-1.8-1.1-3-2.1-3.7-.9-.7-2.2-1.1-3.9-1.1h-100.4c-2.4 0-4.1.5-5.1 1.5s-1.5 2.7-1.5 5.1v157.5c0 2.4.5 4.1 1.5 5.1s2.7 1.5 5.1 1.5h100.4c1.7 0 3-.3 3.9-1s1.6-1.9 2.1-3.7.7-4.3.7-7.6-.2-5.9-.7-7.6c-.5-1.8-1.1-3-2.1-3.7-.9-.9-2.2-1.3-3.9-1.3" fill="#f07d32"/></svg>