<svg enable-background="new 0 0 1187 636" viewBox="0 0 1187 636" xmlns="http://www.w3.org/2000/svg"><path d="m472.4 571c7 0 12.1 1.2 15.5 3.7 3.3 2.5 5 6.3 5 11.5 0 9.8-6.8 14.7-20.5 14.7h-23.4v-30h23.4zm-2.1-49.9c6.5 0 11.3 1.1 14.3 3.2s4.5 5.6 4.5 10.3c0 4.6-1.5 8.1-4.6 10.3-3.1 2.3-7.8 3.4-14.1 3.4h-21.4v-27.2zm2.3-22.7h-43.3c-2.4 0-4.1.5-5.1 1.5s-1.5 2.7-1.5 5.1v112c0 2.4.5 4.1 1.5 5.1s2.7 1.5 5.1 1.5h46.1c14.6 0 25.7-3.1 33.4-9.2s11.5-15.2 11.5-27.1c0-7.7-1.9-13.9-5.7-18.7s-9.1-8.3-15.8-10.5c5.5-2.5 9.7-6 12.7-10.3s4.4-9.4 4.4-15.3c0-10.7-3.5-19-10.6-25-7.1-6.1-18-9.1-32.7-9.1m-92.5 0h-13.1c-2.4 0-4.1.5-5.1 1.5s-1.5 2.7-1.5 5.1v70.8c0 8.4-2.1 14.6-6.4 18.8s-10 6.3-17.2 6.3-12.9-2.1-17.2-6.3-6.4-10.5-6.4-18.8v-70.8c0-2.4-.5-4.1-1.5-5.1s-2.7-1.5-5.1-1.5h-13.1c-2.4 0-4.1.5-5.1 1.5s-1.5 2.7-1.5 5.1v72.9c0 10.1 2 18.7 6.1 25.9 4 7.2 9.8 12.7 17.4 16.5 7.5 3.8 16.4 5.6 26.6 5.6s19.1-1.9 26.6-5.6c7.5-3.8 13.3-9.2 17.4-16.5 4-7.2 6.1-15.8 6.1-25.9v-72.9c0-2.4-.5-4.1-1.5-5.1-1.4-1-3.1-1.5-5.5-1.5m-131.7 0h-13.1c-2.4 0-4.1.5-5.1 1.5s-1.5 2.7-1.5 5.1v41.7h-47.2v-41.7c0-2.4-.5-4.1-1.5-5.1s-2.7-1.5-5.1-1.5h-13.1c-2.4 0-4.1.5-5.1 1.5s-1.5 2.7-1.5 5.1v112c0 2.4.5 4.1 1.5 5.1s2.7 1.5 5.1 1.5h13.1c2.4 0 4.1-.5 5.1-1.5s1.5-2.7 1.5-5.1v-45.5h47.2v45.5c0 2.4.5 4.1 1.5 5.1s2.7 1.5 5.1 1.5h13.1c2.4 0 4.1-.5 5.1-1.5s1.5-2.7 1.5-5.1v-112c0-2.4-.5-4.1-1.5-5.1s-2.7-1.5-5.1-1.5" fill="#3e55cd"/><path d="m909 337.9c-4.6-1.9-8.1-2.8-10.3-2.8-1.3 0-2.3.3-3.2.8-.8.5-1.6 1.4-2.3 2.5l-29.5 48.6-29.5-48.6c-1.3-2.2-3.2-3.3-5.6-3.3-2.3 0-5.8.9-10.4 2.8-3.2 1.3-5.5 2.7-6.9 4s-2.2 2.7-2.2 4.2c0 1.3.4 2.5 1.3 3.8l40 64v41c0 2.4.5 4.1 1.5 5.1s2.7 1.5 5.1 1.5h13c2.4 0 4.1-.5 5.1-1.5s1.5-2.7 1.5-5.1v-41l40-64c.8-1.4 1.3-2.7 1.3-3.9 0-2.9-3-5.6-8.9-8.1m-170.9-3.8c-11.5 0-21.7 2.6-30.4 7.9-8.7 5.2-15.5 12.7-20.2 22.5-4.8 9.8-7.2 21.3-7.2 34.5s2.4 24.7 7.2 34.5 11.5 17.3 20.2 22.6 18.8 7.9 30.4 7.9c14.6 0 28.2-3.1 40.8-9.2 3.2-1.5 4.9-4.1 4.9-7.8 0-1.9-.5-4.3-1.5-7.3s-2.2-5.3-3.6-6.7-3-2.2-4.6-2.2c-1.1 0-2.2.2-3.2.7-5.3 2.5-10.6 4.4-15.7 5.6s-10.5 1.8-16.1 1.8c-9.9 0-17.6-3.4-23-10.3-5.5-6.9-8.2-16.8-8.2-29.7s2.7-22.8 8.1-29.6 13.1-10.2 23.1-10.2c5.6 0 11 .6 16.1 1.8s10.3 3.1 15.7 5.6c1 .5 2 .7 3.2.7 1.6 0 3.1-.7 4.6-2.2 1.4-1.4 2.7-3.7 3.6-6.7 1-3 1.5-5.4 1.5-7.3 0-3.7-1.6-6.3-4.9-7.8-12.6-6.1-26.2-9.1-40.8-9.1m-97.8 103.8h-27v-77.7h24.9c2.5 0 4.2-.8 5.2-2.4s1.5-4.7 1.5-9.4c0-4.6-.5-7.8-1.5-9.4-1-1.7-2.7-2.5-5.2-2.5h-76.2c-2.5 0-4.2.8-5.2 2.5s-1.5 4.8-1.5 9.4.5 7.8 1.5 9.4 2.7 2.4 5.2 2.4h24.9v77.7h-27c-2.5 0-4.2.8-5.2 2.5s-1.5 4.8-1.5 9.4.5 7.8 1.5 9.4 2.7 2.4 5.2 2.4h80.4c2.5 0 4.2-.8 5.2-2.4s1.5-4.7 1.5-9.4c0-4.6-.5-7.8-1.5-9.4-1-1.7-2.8-2.5-5.2-2.5m-130.6-1.1h-57.6v-93.8c0-2.4-.5-4.1-1.5-5.1s-2.7-1.5-5.1-1.5h-13.1c-2.4 0-4.1.5-5.1 1.5s-1.5 2.7-1.5 5.1v112c0 2.4.5 4.1 1.5 5.1s2.7 1.5 5.1 1.5h77.3c1.7 0 3-.3 3.9-1s1.6-1.9 2.1-3.7.7-4.3.7-7.6-.2-5.9-.7-7.6c-.5-1.8-1.1-3-2.1-3.7-.9-.8-2.2-1.2-3.9-1.2m-173-77.7c9.8 0 17.3 3.4 22.5 10.3 5.1 6.9 7.1 16.7 7.1 29.6s-1.9 22.7-7.1 29.6c-5.1 6.9-12.6 10.3-22.5 10.3s-17.3-3.4-22.5-10.3c-5.1-6.9-7.1-16.8-7.1-29.6 0-12.9 1.9-22.7 7.1-29.6s12.7-10.3 22.5-10.3m0-25c-11.5 0-21.7 2.6-30.4 7.9-8.7 5.2-15.5 12.7-20.2 22.5-4.8 9.8-6.5 21.3-6.5 34.5s1.8 24.7 6.5 34.5c4.8 9.8 11.5 17.3 20.2 22.6s18.8 7.9 30.4 7.9c11.5 0 21.7-2.6 30.4-7.9s15.5-12.8 20.2-22.6c4.8-9.8 6.5-21.3 6.5-34.5s-1.8-24.7-6.5-34.5c-4.8-9.8-11.5-17.3-20.2-22.5-8.7-5.3-18.8-7.9-30.4-7.9m-132.2 66.6h-23.1v-39.6h23.1c8.4 0 14.7 1.6 18.9 4.8 4.3 3.2 6.4 8.2 6.4 14.9s-2.1 11.7-6.4 15c-4.2 3.3-10.5 4.9-18.9 4.9m3.3-64.3h-46.1c-2.4 0-4.1.5-5.1 1.5s-1.5 2.7-1.5 5.1v112c0 2.4.5 4.1 1.5 5.1s2.7 1.5 5.1 1.5h13.1c2.4 0 4.1-.5 5.1-1.5s1.5-2.7 1.5-5.1v-29.4h26.4c10.7 0 19.7-1.8 27.1-5.4s12.9-8.8 16.6-15.5 5.5-14.6 5.5-23.7-1.8-17-5.5-23.7c-3.7-6.6-9.2-11.8-16.6-15.4-7.4-3.7-16.4-5.5-27.1-5.5" fill="#3e55cd"/><path d="m1170.2 174.4h-11.6c-2.4 0-4.1.5-5.1 1.5s-1.5 2.7-1.5 5.1v66.2h-.4l-48.2-70.3c-1.1-1.7-3-2.5-5.7-2.5h-14.1c-2.4 0-4.1.5-5.1 1.5s-1.5 2.7-1.5 5.1v112c0 2.4.5 4.1 1.5 5.1s2.7 1.5 5.1 1.5h11.6c2.4 0 4.1-.5 5.1-1.5s1.5-2.7 1.5-5.1v-72.1h.4l51.6 75.3c1.4 2 2.9 3.5 4.5 4.4s3.9 1.4 7 1.4c4.2 0 7.2-.6 9-1.7 1.8-1.2 2.6-2.9 2.6-5.2v-114.1c0-2.4-.5-4.1-1.5-5.1-1.2-1-2.9-1.5-5.2-1.5m-175.1 22.7c9.8 0 17.3 3.4 22.5 10.3 5.1 6.9 7.1 16.7 7.1 29.6s-1.9 22.7-7.1 29.6c-5.1 6.9-12.6 10.3-22.5 10.3-9.8 0-17.3-3.4-22.5-10.3-5.1-6.9-7.1-16.8-7.1-29.6 0-12.9 1.9-22.7 7.1-29.6s12.7-10.3 22.5-10.3m0-25c-11.5 0-21.7 2.6-30.4 7.9-8.7 5.2-15.5 12.7-20.2 22.5-4.8 9.8-6.5 21.3-6.5 34.5s1.8 24.7 6.5 34.5c4.8 9.8 11.5 17.3 20.2 22.6s18.8 7.9 30.4 7.9c11.5 0 21.7-2.6 30.4-7.9s15.5-12.8 20.2-22.6c4.8-9.8 6.5-21.3 6.5-34.5s-1.8-24.7-6.5-34.5c-4.8-9.8-11.5-17.3-20.2-22.5-8.7-5.3-18.8-7.9-30.4-7.9m-91.5 103.8h-27v-77.7h24.9c2.5 0 4.2-.8 5.2-2.4s1.5-4.7 1.5-9.4c0-4.6-.5-7.8-1.5-9.4-1-1.7-2.7-2.5-5.2-2.5h-76.1c-2.5 0-4.2.8-5.2 2.5s-1.5 4.8-1.5 9.4.5 7.8 1.5 9.4 2.7 2.4 5.2 2.4h24.9v77.7h-27c-2.5 0-4.2.8-5.2 2.5s-1.5 4.8-1.5 9.4.5 7.8 1.5 9.4 2.7 2.4 5.2 2.4h80.4c2.5 0 4.2-.8 5.2-2.4s1.5-4.7 1.5-9.4c0-4.6-.5-7.8-1.5-9.4-1.1-1.7-2.8-2.5-5.3-2.5m-124.3-101.5h-95.1c-1.7 0-3 .4-3.9 1.1s-1.6 2-2.1 3.7c-.5 1.8-.7 4.3-.7 7.6s.2 5.9.7 7.6c.5 1.8 1.1 3 2.1 3.7.9.7 2.2 1 3.9 1h34.4v93.9c0 2.4.5 4.1 1.5 5.1s2.7 1.5 5.1 1.5h13.1c2.4 0 4.1-.5 5.1-1.5s1.5-2.7 1.5-5.1v-93.8h34.4c1.7 0 3-.3 3.9-1s1.6-1.9 2.1-3.7.7-4.3.7-7.6-.2-5.9-.7-7.6c-.5-1.8-1.1-3-2.1-3.7-.9-.8-2.2-1.2-3.9-1.2m-179.3 34h.4l14.6 43.2h-30zm56.2 81-40.7-110.4c-.9-2.5-2.5-4.2-4.7-5.3s-5.6-1.6-10.2-1.6-8 .5-10.2 1.5c-2.3 1-3.9 2.8-4.9 5.3l-42.1 110.4c-.4 1.1-.6 2-.6 2.8 0 1.7.8 3.2 2.5 4.4 1.7 1.3 4.4 2.3 8.2 3.2 3.6.8 6.4 1.3 8.5 1.3 1.9 0 3.4-.4 4.6-1.1s2-1.8 2.6-3.3l7.5-20.4h46.2l7.3 20.4c.6 1.5 1.4 2.6 2.5 3.3s2.7 1.1 4.6 1.1c2.2 0 5.1-.4 8.6-1.3 3.8-.8 6.5-1.9 8.2-3.2s2.5-2.8 2.5-4.5c.1-.9 0-1.9-.4-2.6m-181.4-117.3c-11.5 0-21.7 2.6-30.4 7.9-8.7 5.2-15.5 12.7-20.2 22.5-4.8 9.8-7.2 21.3-7.2 34.5s2.4 24.7 7.2 34.5 11.5 17.3 20.2 22.6 18.8 7.9 30.4 7.9c14.6 0 28.2-3.1 40.8-9.2 3.2-1.5 4.9-4.1 4.9-7.8 0-1.9-.5-4.3-1.5-7.3s-2.2-5.3-3.6-6.7-3-2.2-4.6-2.2c-1.1 0-2.2.2-3.2.7-5.3 2.5-10.6 4.4-15.7 5.6s-10.5 1.8-16.1 1.8c-9.9 0-17.6-3.4-23-10.3-5.5-6.9-8.2-16.8-8.2-29.7s2.7-22.8 8.1-29.6 13.1-10.2 23.1-10.2c5.6 0 11 .6 16.1 1.8s10.3 3.1 15.7 5.6c1 .5 2 .7 3.2.7 1.6 0 3.1-.7 4.6-2.2 1.4-1.4 2.7-3.7 3.6-6.7 1-3 1.5-5.4 1.5-7.3 0-3.7-1.6-6.3-4.9-7.8-12.7-6.1-26.3-9.1-40.8-9.1m-94.7 2.3h-13.1c-2.4 0-4.1.5-5.1 1.5s-1.5 2.7-1.5 5.1v70.8c0 8.4-2.1 14.6-6.4 18.8s-10 6.3-17.2 6.3-12.9-2.1-17.2-6.3-6.4-10.5-6.4-18.8v-70.8c0-2.4-.5-4.1-1.5-5.1s-2.7-1.5-5.1-1.5h-13.1c-2.4 0-4.1.5-5.1 1.5s-1.5 2.7-1.5 5.1v72.9c0 10.1 2 18.7 6.1 25.9 4 7.2 9.8 12.7 17.3 16.5s16.4 5.6 26.6 5.6 19.1-1.9 26.6-5.6c7.5-3.8 13.3-9.2 17.3-16.5 4-7.2 6.1-15.8 6.1-25.9v-72.9c0-2.4-.5-4.1-1.5-5.1-1.2-1-2.9-1.5-5.3-1.5m-181.4 24.8c11 0 19.3 3.2 24.9 9.5s8.4 15.8 8.4 28.3-2.8 22-8.4 28.3c-5.6 6.4-13.9 9.5-24.9 9.5h-17.3v-75.6zm2.2-24.8h-39.1c-2.4 0-4.1.5-5.1 1.5s-1.5 2.7-1.5 5.1v112c0 2.4.5 4.1 1.5 5.1s2.7 1.5 5.1 1.5h39.1c12.3 0 22.8-2.4 31.6-7.3s15.5-12 20.2-21.4 7-20.7 7-33.9-2.3-24.5-7-33.9-11.4-16.5-20.2-21.4-19.3-7.3-31.6-7.3" fill="#f07d32"/><path d="m643.4 12.4h-11.6c-2.4 0-4.1.5-5.1 1.5s-1.5 2.7-1.5 5.1v66.2h-.4l-48.2-70.3c-1.1-1.7-3-2.5-5.7-2.5h-14.1c-2.4 0-4.1.5-5.1 1.5s-1.5 2.7-1.5 5.1v112c0 2.4.5 4.1 1.5 5.1s2.7 1.5 5.1 1.5h11.6c2.4 0 4.1-.5 5.1-1.5s1.5-2.7 1.5-5.1v-72.2h.4l51.6 75.3c1.4 2 2.9 3.5 4.5 4.4s3.9 1.4 7 1.4c4.2 0 7.2-.6 9-1.7 1.8-1.2 2.6-2.9 2.6-5.2v-114c0-2.4-.5-4.1-1.5-5.1-1.1-1-2.8-1.5-5.2-1.5m-134.6 100.4h-57.7v-27.3h38.4c1.7 0 3-.3 3.9-1s1.6-1.9 2.1-3.7.7-4.3.7-7.6-.2-5.9-.7-7.6c-.5-1.8-1.1-3-2.1-3.7-.9-.7-2.2-1.1-3.9-1.1h-38.4v-23.6h55.6c1.7 0 3-.3 3.9-1s1.6-1.9 2.1-3.7.7-4.3.7-7.6-.2-5.9-.7-7.6c-.5-1.8-1.1-3-2.1-3.7-.9-.7-2.2-1.1-3.9-1.1h-75.3c-2.4 0-4.1.5-5.1 1.5s-1.5 2.7-1.5 5.1v111.9c0 2.4.5 4.1 1.5 5.1s2.7 1.5 5.1 1.5h77.4c1.7 0 3-.3 3.9-1s1.6-1.9 2.1-3.7.7-4.3.7-7.6-.2-5.9-.7-7.6c-.5-1.8-1.1-3-2.1-3.7-.9-.8-2.2-1.2-3.9-1.2m-172.6-36.1h-16.8v-39.5h16.8c8.4 0 14.7 1.6 18.9 4.8 4.3 3.2 6.4 8.2 6.4 14.9s-2.1 11.7-6.4 15c-4.2 3.2-10.5 4.8-18.9 4.8m3.3-64.3h-39.8c-2.4 0-4.1.5-5.1 1.5s-1.5 2.7-1.5 5.1v112c0 2.4.5 4.1 1.5 5.1s2.7 1.5 5.1 1.5h13.1c2.4 0 4.1-.5 5.1-1.5s1.5-2.7 1.5-5.1v-29.4h20c10.7 0 19.7-1.8 27.1-5.4s12.9-8.8 16.6-15.5 5.5-14.6 5.5-23.7-1.8-17-5.5-23.7c-3.7-6.6-9.2-11.8-16.6-15.4-7.3-3.7-16.3-5.5-27-5.5m-134.4 22.7c9.8 0 17.3 3.4 22.5 10.3 5.1 6.9 7.1 16.7 7.1 29.6s-1.9 22.7-7.1 29.6c-5.1 6.9-12.6 10.3-22.5 10.3-9.8 0-17.3-3.4-22.5-10.3-5.1-6.9-7.1-16.8-7.1-29.6s1.9-22.7 7.1-29.6c5.1-6.9 12.6-10.3 22.5-10.3m0-25c-11.5 0-21.7 2.6-30.4 7.9-8.7 5.2-15.5 12.7-20.2 22.5-4.8 9.8-6.5 21.3-6.5 34.5s1.8 24.7 6.5 34.5c4.8 9.8 11.5 17.3 20.2 22.6s18.8 7.9 30.4 7.9c11.5 0 21.7-2.6 30.4-7.9s15.5-12.8 20.2-22.6c4.8-9.8 6.5-21.3 6.5-34.5s-1.8-24.7-6.5-34.5c-4.8-9.8-11.5-17.3-20.2-22.5-8.8-5.3-18.9-7.9-30.4-7.9" fill="#f0286e"/><path d="m117.2 336.5h-77.4v-89.4h63.9c1.7 0 3-.3 3.9-1s1.6-1.9 2.1-3.7.7-5.6.7-8.9-.2-7.1-.7-8.9-1.1-3-2.1-3.7c-.9-.7-2.2-1.1-3.9-1.1h-63.9v-82.2h77.5c1.7 0 3-.3 3.9-1s1.6-1.9 2.1-3.7.7-5.6.7-8.9-.2-7.1-.7-8.9-1.1-3-2.1-3.7c-.9-.7-2.2-1.1-3.9-1.1h-100.5c-2.4 0-4.1.5-5.1 1.5s-1.5 2.7-1.5 5.1v240.4c0 2.4.5 4.1 1.5 5.1s2.7 1.5 5.1 1.5h100.4c1.7 0 3-.3 3.9-1s1.6-1.9 2.1-3.7.7-5.6.7-8.9-.2-7.1-.7-8.9-1.1-3-2.1-3.7c-.9-.8-2.2-1.2-3.9-1.2" fill="#f07d32"/></svg>