<svg enable-background="new 0 0 400 300" viewBox="0 0 400 300" xmlns="http://www.w3.org/2000/svg"><g fill="#fff"><path d="m255.1 217.9h-80.7v-54.4h67.1c1.7 0 3-.3 3.9-1s1.6-1.9 2.1-3.7.7-4.3.7-7.6-.2-5.9-.7-7.6c-.5-1.8-1.1-3-2.1-3.7-.9-.7-2.2-1.1-3.9-1.1h-67.1v-42h80.7c1.7 0 3-.3 3.9-1s1.6-1.9 2.1-3.7.7-4.3.7-7.6-.2-5.9-.7-7.6c-.5-1.8-1.1-3-2.1-3.7-.9-.7-2.2-1.1-3.9-1.1h-100.3c-2.4 0-4.1.5-5.1 1.5s-1.5 2.7-1.5 5.1v157.3c0 2.4.5 4.1 1.5 5.1s2.7 1.5 5.1 1.5h100.4c1.7 0 3-.3 3.9-1s1.6-1.9 2.1-3.7.7-4.3.7-7.6-.2-5.9-.7-7.6c-.5-1.8-1.1-3-2.1-3.7-1-.8-2.3-1.1-4-1.1"/><path d="m385.7 169.6h-13.1c-2.4 0-4.1.5-5.1 1.5s-1.5 2.7-1.5 5.1v41.7h-47.2v-41.7c0-2.4-.5-4.1-1.5-5.1s-2.7-1.5-5.1-1.5h-13.2c-2.4 0-4.1.5-5.1 1.5s-1.5 2.7-1.5 5.1v111.9c0 2.4.5 4.1 1.5 5.1s2.7 1.5 5.1 1.5h13.1c2.4 0 4.1-.5 5.1-1.5s1.5-2.7 1.5-5.1v-45.5h47.3v45.5c0 2.4.5 4.1 1.5 5.1s2.7 1.5 5.1 1.5h13.1c2.4 0 4.1-.5 5.1-1.5s1.5-2.7 1.5-5.1v-111.9c0-2.4-.5-4.1-1.5-5.1s-2.7-1.5-5.1-1.5"/><path d="m341.9 71.9h-23.1v-39.6h23.1c8.4 0 14.7 1.6 18.9 4.8 4.3 3.2 6.4 8.2 6.4 14.9s-2.1 11.7-6.4 15-10.6 4.9-18.9 4.9m3.2-64.3h-46.1c-2.4 0-4.1.5-5.1 1.5s-1.5 2.7-1.5 5.1v111.9c0 2.4.5 4.1 1.5 5.1s2.7 1.5 5.1 1.5h13.1c2.4 0 4.1-.5 5.1-1.5s1.5-2.7 1.5-5.1v-29.4h26.4c10.7 0 19.7-1.8 27.1-5.4s12.9-8.8 16.6-15.5 5.5-14.6 5.5-23.7-1.8-17-5.5-23.7c-3.7-6.6-9.2-11.8-16.6-15.4-7.3-3.6-16.4-5.4-27.1-5.4"/><path d="m62.8 30.2c9.8 0 17.3 3.4 22.5 10.3 5.1 6.9 7.1 16.7 7.1 29.6s-1.9 22.7-7.1 29.6c-5.1 6.9-12.6 10.3-22.5 10.3-9.8 0-17.3-3.4-22.5-10.3-5.1-6.9-7.1-16.8-7.1-29.6s1.9-22.7 7.1-29.6c5.1-6.8 12.6-10.3 22.5-10.3m0-25c-11.5 0-21.7 2.6-30.4 7.9-8.7 5.2-15.5 12.7-20.2 22.5-4.8 9.8-6.5 21.3-6.5 34.5s1.8 24.7 6.5 34.5c4.8 9.8 11.5 17.3 20.2 22.6s18.8 7.9 30.4 7.9c11.5 0 21.7-2.6 30.4-7.9s15.5-12.8 20.2-22.6c4.8-9.8 6.5-21.3 6.5-34.5s-1.8-24.7-6.5-34.5c-4.8-9.8-11.5-17.3-20.2-22.5-8.8-5.2-18.9-7.9-30.4-7.9"/></g></svg>